<svg xmlns="http://www.w3.org/2000/svg" xmlns:xlink="http://www.w3.org/1999/xlink" width="300" zoomAndPan="magnify" viewBox="0 0 224.87999 64.499998" height="86" preserveAspectRatio="xMidYMid meet" version="1.0"><defs><g/><clipPath id="id1"><path d="M 106.121094 0 L 150 0 L 150 64.003906 L 106.121094 64.003906 Z M 106.121094 0 " clip-rule="nonzero"/></clipPath><clipPath id="id2"><path d="M 213 30 L 223.957031 30 L 223.957031 38 L 213 38 Z M 213 30 " clip-rule="nonzero"/></clipPath></defs><g clip-path="url(#id1)"><path fill="#000000" d="M 148.355469 0.0625 C 144.347656 0.359375 140.417969 1.320312 136.472656 1.984375 C 132.375 2.664062 128.445312 2.945312 124.335938 2.226562 C 124.246094 2.214844 124.15625 2.226562 124.078125 2.253906 C 123.835938 2.277344 123.59375 2.367188 123.414062 2.546875 C 122.339844 3.519531 121.824219 5.363281 121.238281 6.667969 C 120.636719 8.015625 120.046875 9.359375 119.46875 10.714844 C 118.226562 13.59375 117.039062 16.5 115.820312 19.394531 C 114.628906 22.25 113.503906 25.128906 112.324219 27.996094 C 111.136719 30.890625 109.816406 33.71875 108.691406 36.636719 C 108.445312 37.253906 109.277344 37.585938 109.703125 37.226562 C 112.082031 37.316406 114.4375 37.023438 116.820312 36.816406 C 118.011719 36.714844 119.203125 36.664062 120.390625 36.636719 C 120.699219 36.625 121.03125 36.652344 121.378906 36.675781 C 120.316406 38.1875 119.328125 39.761719 118.304688 41.296875 C 116.808594 43.550781 115.285156 45.777344 113.847656 48.082031 C 111.058594 52.550781 108.445312 57.132812 106.5 62.035156 C 106.128906 62.984375 106.820312 63.636719 107.613281 63.726562 C 108.101562 64.070312 108.753906 64.210938 109.433594 63.90625 C 115.257812 61.28125 119.6875 56.121094 123.9375 51.527344 C 128.613281 46.46875 133.824219 41.949219 138.574219 36.957031 C 141.480469 33.898438 143.925781 30.570312 146.535156 27.265625 C 147.34375 26.242188 146.832031 24.910156 145.511719 24.785156 C 140.941406 24.335938 136.332031 24.476562 131.734375 24.425781 C 137.945312 17.191406 143.9375 9.753906 149.46875 2.011719 C 150.019531 1.230469 149.289062 0 148.355469 0.0625 Z M 142.667969 27.726562 C 141.042969 29.816406 139.160156 31.746094 137.367188 33.628906 C 134.910156 36.203125 132.324219 38.660156 129.710938 41.078125 C 127.265625 43.332031 124.835938 45.574219 122.554688 47.992188 C 120.390625 50.285156 118.292969 52.625 116.011719 54.804688 C 114.386719 56.363281 112.683594 57.796875 110.839844 59.039062 C 112.503906 55.546875 114.476562 52.179688 116.4375 48.835938 C 117.460938 47.097656 118.445312 45.328125 119.40625 43.5625 C 119.496094 43.421875 119.585938 43.292969 119.675781 43.152344 C 120.53125 41.859375 121.417969 40.582031 122.25 39.261719 C 122.902344 38.238281 123.632812 37.226562 124.195312 36.125 C 124.449219 35.882812 124.589844 35.550781 124.566406 35.230469 C 124.566406 35.214844 124.566406 35.203125 124.566406 35.179688 C 124.539062 34.972656 124.449219 34.78125 124.269531 34.601562 C 123.402344 33.695312 122.03125 33.886719 120.851562 33.921875 C 119.546875 33.976562 118.242188 34.152344 116.960938 34.371094 C 114.785156 34.742188 112.671875 35.253906 110.585938 35.90625 C 113.644531 31.054688 115.949219 25.589844 118.164062 20.339844 C 119.367188 17.488281 120.570312 14.621094 121.8125 11.777344 C 122.425781 10.371094 123.054688 8.949219 123.695312 7.554688 C 124.257812 6.3125 125.179688 4.96875 125.359375 3.597656 C 128.597656 4.8125 132.492188 4.480469 135.808594 4.070312 C 139.058594 3.675781 142.285156 3.019531 145.539062 2.738281 C 139.417969 10.164062 133.308594 17.601562 126.910156 24.785156 C 125.910156 25.910156 126.613281 27.601562 128.113281 27.691406 C 132.9375 28.007812 137.816406 27.832031 142.667969 27.726562 Z M 142.667969 27.726562 " fill-opacity="1" fill-rule="nonzero"/></g><g fill="#000000" fill-opacity="1"><g transform="translate(0.805383, 37.32564)"><g><path d="M 11.53125 -2.5625 L 11.53125 0 L 1.34375 0 L 1.34375 -10.25 L 4.453125 -10.25 L 4.453125 -2.5625 Z M 11.53125 -2.5625 "/></g></g></g><g fill="#000000" fill-opacity="1"><g transform="translate(12.745572, 37.32564)"><g><path d="M 1.125 -8.3125 L 1.125 -10.25 L 3.78125 -10.25 L 3.78125 -8.3125 Z M 1.125 0 L 1.125 -7.171875 L 3.78125 -7.171875 L 3.78125 0 Z M 1.125 0 "/></g></g></g><g fill="#000000" fill-opacity="1"><g transform="translate(17.663025, 37.32564)"><g><path d="M 11.296875 0.3125 C 11.296875 1.207031 11.003906 1.921875 10.421875 2.453125 C 9.835938 2.984375 9.101562 3.25 8.21875 3.25 L 7.046875 3.34375 L 5.765625 3.375 C 4.367188 3.375 3.265625 3.21875 2.453125 2.90625 C 1.648438 2.601562 1.25 1.882812 1.25 0.75 L 3.953125 0.75 C 3.953125 0.96875 4.039062 1.140625 4.21875 1.265625 C 4.320312 1.328125 4.445312 1.375 4.59375 1.40625 C 4.738281 1.445312 4.910156 1.46875 5.109375 1.46875 L 5.859375 1.515625 L 6.171875 1.515625 C 6.691406 1.515625 7.148438 1.484375 7.546875 1.421875 C 7.941406 1.359375 8.203125 1.226562 8.328125 1.03125 C 8.460938 0.832031 8.546875 0.640625 8.578125 0.453125 L 8.609375 -0.140625 L 8.609375 -1.515625 C 8.410156 -1.054688 8.09375 -0.695312 7.65625 -0.4375 C 7.226562 -0.1875 6.492188 -0.0625 5.453125 -0.0625 C 3.722656 -0.0625 2.535156 -0.273438 1.890625 -0.703125 C 1.253906 -1.128906 0.9375 -2.164062 0.9375 -3.8125 C 0.9375 -4.289062 0.972656 -4.726562 1.046875 -5.125 C 1.117188 -5.519531 1.226562 -5.851562 1.375 -6.125 C 1.675781 -6.695312 2.160156 -7.035156 2.828125 -7.140625 C 3.304688 -7.203125 3.664062 -7.242188 3.90625 -7.265625 C 4.144531 -7.296875 4.410156 -7.3125 4.703125 -7.3125 L 5.90625 -7.328125 C 6.71875 -7.328125 7.304688 -7.238281 7.671875 -7.0625 C 8.023438 -6.90625 8.335938 -6.503906 8.609375 -5.859375 L 8.609375 -7.171875 L 11.296875 -7.171875 Z M 6.09375 -2.03125 L 6.515625 -2.03125 C 6.960938 -2.03125 7.296875 -2.050781 7.515625 -2.09375 C 7.742188 -2.144531 7.945312 -2.222656 8.125 -2.328125 C 8.300781 -2.441406 8.421875 -2.601562 8.484375 -2.8125 C 8.546875 -3.03125 8.578125 -3.265625 8.578125 -3.515625 L 8.578125 -3.875 C 8.578125 -4.40625 8.492188 -4.773438 8.328125 -4.984375 C 8.160156 -5.203125 7.816406 -5.3125 7.296875 -5.3125 L 5.875 -5.34375 L 5.421875 -5.34375 C 5.054688 -5.34375 4.757812 -5.320312 4.53125 -5.28125 C 4.300781 -5.25 4.117188 -5.171875 3.984375 -5.046875 C 3.847656 -4.921875 3.75 -4.757812 3.6875 -4.5625 L 3.625 -4 L 3.625 -3.734375 C 3.625 -3.191406 3.691406 -2.800781 3.828125 -2.5625 C 3.972656 -2.320312 4.28125 -2.171875 4.75 -2.109375 L 5.65625 -2.03125 Z M 6.09375 -2.03125 "/></g></g></g><g fill="#000000" fill-opacity="1"><g transform="translate(30.06423, 37.32564)"><g><path d="M 6.8125 -7.328125 C 8.1875 -7.328125 9.210938 -7.097656 9.890625 -6.640625 C 10.566406 -6.191406 10.90625 -5.316406 10.90625 -4.015625 L 10.90625 0 L 8.25 0 L 8.25 -3.578125 C 8.25 -4.285156 8.15625 -4.753906 7.96875 -4.984375 C 7.78125 -5.222656 7.21875 -5.34375 6.28125 -5.34375 L 6.109375 -5.34375 C 5.273438 -5.34375 4.679688 -5.226562 4.328125 -5 C 3.972656 -4.78125 3.796875 -4.296875 3.796875 -3.546875 L 3.796875 0 L 1.140625 0 L 1.140625 -10.25 L 3.796875 -10.25 L 3.796875 -5.9375 C 4.046875 -6.507812 4.414062 -6.890625 4.90625 -7.078125 C 5.414062 -7.242188 6.050781 -7.328125 6.8125 -7.328125 Z M 6.8125 -7.328125 "/></g></g></g><g fill="#000000" fill-opacity="1"><g transform="translate(42.096621, 37.32564)"><g><path d="M 4.71875 -5.40625 L 4.71875 -3.125 C 4.71875 -2.65625 4.789062 -2.320312 4.9375 -2.125 C 5.09375 -1.925781 5.394531 -1.828125 5.84375 -1.828125 C 6.238281 -1.828125 6.523438 -1.890625 6.703125 -2.015625 C 6.878906 -2.148438 6.96875 -2.410156 6.96875 -2.796875 L 6.96875 -3.125 L 9.046875 -3.125 C 9.046875 -1.863281 8.84375 -1 8.4375 -0.53125 C 8.03125 -0.0703125 7.175781 0.15625 5.875 0.15625 C 4.28125 0.15625 3.234375 -0.0390625 2.734375 -0.4375 C 2.234375 -0.84375 1.984375 -1.472656 1.984375 -2.328125 L 1.984375 -5.40625 L 0.609375 -5.40625 L 0.609375 -7.171875 L 1.984375 -7.171875 L 1.984375 -8.921875 L 4.71875 -8.921875 L 4.71875 -7.171875 L 9.046875 -7.171875 L 9.046875 -5.40625 Z M 4.71875 -5.40625 "/></g></g></g><g fill="#000000" fill-opacity="1"><g transform="translate(52.11593, 37.32564)"><g><path d="M 3.78125 -5.703125 C 3.988281 -6.335938 4.351562 -6.765625 4.875 -6.984375 C 5.394531 -7.210938 6.054688 -7.328125 6.859375 -7.328125 C 8.316406 -7.328125 9.347656 -7.085938 9.953125 -6.609375 C 10.566406 -6.140625 10.875 -5.191406 10.875 -3.765625 L 10.875 0 L 8.203125 0 L 8.203125 -3.765625 C 8.203125 -4.390625 8.070312 -4.796875 7.8125 -4.984375 C 7.5625 -5.171875 7.078125 -5.265625 6.359375 -5.265625 L 6.046875 -5.265625 C 5.265625 -5.265625 4.691406 -5.148438 4.328125 -4.921875 C 3.960938 -4.703125 3.78125 -4.1875 3.78125 -3.375 L 3.78125 0 L 1.125 0 L 1.125 -7.171875 L 3.78125 -7.171875 Z M 3.78125 -5.703125 "/></g></g></g><g fill="#000000" fill-opacity="1"><g transform="translate(64.117587, 37.32564)"><g><path d="M 1.125 -8.3125 L 1.125 -10.25 L 3.78125 -10.25 L 3.78125 -8.3125 Z M 1.125 0 L 1.125 -7.171875 L 3.78125 -7.171875 L 3.78125 0 Z M 1.125 0 "/></g></g></g><g fill="#000000" fill-opacity="1"><g transform="translate(69.03504, 37.32564)"><g><path d="M 3.78125 -5.703125 C 3.988281 -6.335938 4.351562 -6.765625 4.875 -6.984375 C 5.394531 -7.210938 6.054688 -7.328125 6.859375 -7.328125 C 8.316406 -7.328125 9.347656 -7.085938 9.953125 -6.609375 C 10.566406 -6.140625 10.875 -5.191406 10.875 -3.765625 L 10.875 0 L 8.203125 0 L 8.203125 -3.765625 C 8.203125 -4.390625 8.070312 -4.796875 7.8125 -4.984375 C 7.5625 -5.171875 7.078125 -5.265625 6.359375 -5.265625 L 6.046875 -5.265625 C 5.265625 -5.265625 4.691406 -5.148438 4.328125 -4.921875 C 3.960938 -4.703125 3.78125 -4.1875 3.78125 -3.375 L 3.78125 0 L 1.125 0 L 1.125 -7.171875 L 3.78125 -7.171875 Z M 3.78125 -5.703125 "/></g></g></g><g fill="#000000" fill-opacity="1"><g transform="translate(81.036697, 37.32564)"><g><path d="M 11.296875 0.3125 C 11.296875 1.207031 11.003906 1.921875 10.421875 2.453125 C 9.835938 2.984375 9.101562 3.25 8.21875 3.25 L 7.046875 3.34375 L 5.765625 3.375 C 4.367188 3.375 3.265625 3.21875 2.453125 2.90625 C 1.648438 2.601562 1.25 1.882812 1.25 0.75 L 3.953125 0.75 C 3.953125 0.96875 4.039062 1.140625 4.21875 1.265625 C 4.320312 1.328125 4.445312 1.375 4.59375 1.40625 C 4.738281 1.445312 4.910156 1.46875 5.109375 1.46875 L 5.859375 1.515625 L 6.171875 1.515625 C 6.691406 1.515625 7.148438 1.484375 7.546875 1.421875 C 7.941406 1.359375 8.203125 1.226562 8.328125 1.03125 C 8.460938 0.832031 8.546875 0.640625 8.578125 0.453125 L 8.609375 -0.140625 L 8.609375 -1.515625 C 8.410156 -1.054688 8.09375 -0.695312 7.65625 -0.4375 C 7.226562 -0.1875 6.492188 -0.0625 5.453125 -0.0625 C 3.722656 -0.0625 2.535156 -0.273438 1.890625 -0.703125 C 1.253906 -1.128906 0.9375 -2.164062 0.9375 -3.8125 C 0.9375 -4.289062 0.972656 -4.726562 1.046875 -5.125 C 1.117188 -5.519531 1.226562 -5.851562 1.375 -6.125 C 1.675781 -6.695312 2.160156 -7.035156 2.828125 -7.140625 C 3.304688 -7.203125 3.664062 -7.242188 3.90625 -7.265625 C 4.144531 -7.296875 4.410156 -7.3125 4.703125 -7.3125 L 5.90625 -7.328125 C 6.71875 -7.328125 7.304688 -7.238281 7.671875 -7.0625 C 8.023438 -6.90625 8.335938 -6.503906 8.609375 -5.859375 L 8.609375 -7.171875 L 11.296875 -7.171875 Z M 6.09375 -2.03125 L 6.515625 -2.03125 C 6.960938 -2.03125 7.296875 -2.050781 7.515625 -2.09375 C 7.742188 -2.144531 7.945312 -2.222656 8.125 -2.328125 C 8.300781 -2.441406 8.421875 -2.601562 8.484375 -2.8125 C 8.546875 -3.03125 8.578125 -3.265625 8.578125 -3.515625 L 8.578125 -3.875 C 8.578125 -4.40625 8.492188 -4.773438 8.328125 -4.984375 C 8.160156 -5.203125 7.816406 -5.3125 7.296875 -5.3125 L 5.875 -5.34375 L 5.421875 -5.34375 C 5.054688 -5.34375 4.757812 -5.320312 4.53125 -5.28125 C 4.300781 -5.25 4.117188 -5.171875 3.984375 -5.046875 C 3.847656 -4.921875 3.75 -4.757812 3.6875 -4.5625 L 3.625 -4 L 3.625 -3.734375 C 3.625 -3.191406 3.691406 -2.800781 3.828125 -2.5625 C 3.972656 -2.320312 4.28125 -2.171875 4.75 -2.109375 L 5.65625 -2.03125 Z M 6.09375 -2.03125 "/></g></g></g><g fill="#000000" fill-opacity="1"><g transform="translate(93.436009, 37.32564)"><g/></g></g><g fill="#000000" fill-opacity="1"><g transform="translate(158.807831, 37.32564)"><g/></g></g><g fill="#000000" fill-opacity="1"><g transform="translate(162.649575, 37.32564)"><g><path d="M 14.25 -3.453125 C 14.25 -2.054688 13.988281 -1.117188 13.46875 -0.640625 C 12.957031 -0.171875 11.9375 0.0625 10.40625 0.0625 L 8.03125 0.109375 L 6.09375 0.078125 C 4.039062 0.078125 2.71875 -0.1875 2.125 -0.71875 C 1.539062 -1.257812 1.25 -2.097656 1.25 -3.234375 L 1.15625 -5.390625 C 1.15625 -7.054688 1.398438 -8.285156 1.890625 -9.078125 C 2.378906 -9.867188 3.382812 -10.265625 4.90625 -10.265625 L 7.8125 -10.34375 C 8.113281 -10.34375 8.5 -10.335938 8.96875 -10.328125 C 9.4375 -10.316406 9.753906 -10.3125 9.921875 -10.3125 C 10.460938 -10.3125 11.128906 -10.269531 11.921875 -10.1875 C 12.710938 -10.101562 13.273438 -9.753906 13.609375 -9.140625 C 13.953125 -8.523438 14.125 -7.691406 14.125 -6.640625 L 11.109375 -6.640625 C 11.109375 -7.097656 10.988281 -7.40625 10.75 -7.5625 C 10.519531 -7.726562 10.15625 -7.8125 9.65625 -7.8125 L 8.78125 -7.828125 L 7.921875 -7.828125 L 6.34375 -7.8125 C 5.414062 -7.8125 4.835938 -7.640625 4.609375 -7.296875 C 4.398438 -6.953125 4.296875 -6.226562 4.296875 -5.125 C 4.296875 -4.019531 4.414062 -3.289062 4.65625 -2.9375 C 4.90625 -2.59375 5.566406 -2.421875 6.640625 -2.421875 L 7.84375 -2.390625 L 9.453125 -2.40625 C 10.078125 -2.40625 10.519531 -2.492188 10.78125 -2.671875 C 11.050781 -2.847656 11.1875 -3.257812 11.1875 -3.90625 L 14.234375 -3.90625 Z M 14.25 -3.453125 "/></g></g></g><g fill="#000000" fill-opacity="1"><g transform="translate(178.001252, 37.32564)"><g><path d="M 4.375 -7.265625 L 7.15625 -7.328125 C 8.269531 -7.328125 9.125 -7.160156 9.71875 -6.828125 C 10.3125 -6.503906 10.609375 -5.84375 10.609375 -4.84375 L 10.609375 0 L 7.9375 0 L 7.9375 -1.171875 C 7.75 -0.609375 7.382812 -0.242188 6.84375 -0.078125 C 6.300781 0.078125 5.601562 0.15625 4.75 0.15625 L 4.25 0.15625 C 3.101562 0.15625 2.257812 0.015625 1.71875 -0.265625 C 1.1875 -0.554688 0.921875 -1.222656 0.921875 -2.265625 C 0.921875 -3.023438 1.128906 -3.597656 1.546875 -3.984375 C 1.960938 -4.367188 2.546875 -4.5625 3.296875 -4.5625 L 4.515625 -4.609375 L 5.71875 -4.609375 C 6.25 -4.609375 6.691406 -4.5625 7.046875 -4.46875 C 7.410156 -4.375 7.707031 -4.164062 7.9375 -3.84375 L 7.9375 -4.625 C 7.9375 -5.039062 7.84375 -5.328125 7.65625 -5.484375 C 7.476562 -5.640625 7.171875 -5.71875 6.734375 -5.71875 L 5.5 -5.75 L 4.625 -5.71875 C 4.375 -5.71875 4.1875 -5.679688 4.0625 -5.609375 C 3.9375 -5.546875 3.875 -5.390625 3.875 -5.140625 L 1.234375 -5.140625 C 1.234375 -5.953125 1.523438 -6.507812 2.109375 -6.8125 C 2.410156 -6.96875 2.738281 -7.082031 3.09375 -7.15625 C 3.445312 -7.226562 3.875 -7.265625 4.375 -7.265625 Z M 5.375 -1.53125 L 6 -1.53125 C 6.195312 -1.53125 6.382812 -1.535156 6.5625 -1.546875 C 6.738281 -1.554688 6.894531 -1.578125 7.03125 -1.609375 C 7.414062 -1.671875 7.660156 -1.757812 7.765625 -1.875 C 7.878906 -1.988281 7.9375 -2.160156 7.9375 -2.390625 C 7.9375 -2.671875 7.816406 -2.863281 7.578125 -2.96875 C 7.347656 -3.070312 7.078125 -3.125 6.765625 -3.125 L 5.234375 -3.15625 C 4.773438 -3.15625 4.378906 -3.109375 4.046875 -3.015625 C 3.710938 -2.929688 3.546875 -2.710938 3.546875 -2.359375 C 3.546875 -2.035156 3.675781 -1.8125 3.9375 -1.6875 C 4.207031 -1.582031 4.539062 -1.53125 4.9375 -1.53125 Z M 5.375 -1.53125 "/></g></g></g><g fill="#000000" fill-opacity="1"><g transform="translate(189.741671, 37.32564)"><g><path d="M 3.78125 -5.75 C 3.96875 -6.375 4.304688 -6.789062 4.796875 -7 C 5.285156 -7.21875 5.882812 -7.328125 6.59375 -7.328125 C 7.695312 -7.328125 8.457031 -7.128906 8.875 -6.734375 C 9.289062 -6.347656 9.5 -5.613281 9.5 -4.53125 L 9.5 -4.0625 L 7.03125 -4.0625 L 7.015625 -4.234375 C 7.015625 -4.460938 6.976562 -4.648438 6.90625 -4.796875 C 6.84375 -4.953125 6.753906 -5.066406 6.640625 -5.140625 C 6.421875 -5.273438 6.035156 -5.34375 5.484375 -5.34375 C 4.835938 -5.34375 4.390625 -5.171875 4.140625 -4.828125 C 3.898438 -4.484375 3.78125 -3.960938 3.78125 -3.265625 L 3.78125 0 L 1.125 0 L 1.125 -7.171875 L 3.78125 -7.171875 Z M 3.78125 -5.75 "/></g></g></g><g fill="#000000" fill-opacity="1"><g transform="translate(199.868548, 37.32564)"><g><path d="M 8.703125 0 L 8.703125 -1.546875 C 8.546875 -0.878906 8.175781 -0.425781 7.59375 -0.1875 C 7.320312 -0.0820312 7.007812 0 6.65625 0.0625 C 6.300781 0.125 5.914062 0.15625 5.5 0.15625 C 4.601562 0.15625 3.835938 0.101562 3.203125 0 C 2.578125 -0.09375 2.097656 -0.296875 1.765625 -0.609375 C 1.429688 -0.921875 1.21875 -1.296875 1.125 -1.734375 C 1.082031 -1.953125 1.050781 -2.175781 1.03125 -2.40625 C 1.007812 -2.644531 1 -2.921875 1 -3.234375 L 1 -3.765625 C 1 -4.429688 1.046875 -4.992188 1.140625 -5.453125 C 1.234375 -5.921875 1.472656 -6.296875 1.859375 -6.578125 C 2.242188 -6.859375 2.742188 -7.054688 3.359375 -7.171875 C 3.640625 -7.210938 3.953125 -7.25 4.296875 -7.28125 C 4.648438 -7.3125 4.984375 -7.328125 5.296875 -7.328125 C 6.347656 -7.328125 7.097656 -7.222656 7.546875 -7.015625 C 8.003906 -6.816406 8.390625 -6.484375 8.703125 -6.015625 L 8.703125 -10.25 L 11.296875 -10.25 L 11.296875 0 Z M 6.5 -1.828125 C 7.3125 -1.828125 7.878906 -1.921875 8.203125 -2.109375 C 8.523438 -2.296875 8.6875 -2.757812 8.6875 -3.5 C 8.6875 -4.3125 8.550781 -4.820312 8.28125 -5.03125 C 8.019531 -5.238281 7.445312 -5.34375 6.5625 -5.34375 L 5.96875 -5.34375 C 5.789062 -5.34375 5.632812 -5.34375 5.5 -5.34375 C 5.375 -5.34375 5.179688 -5.320312 4.921875 -5.28125 C 4.597656 -5.25 4.347656 -5.160156 4.171875 -5.015625 C 4.003906 -4.910156 3.894531 -4.75 3.84375 -4.53125 C 3.789062 -4.320312 3.757812 -4.148438 3.75 -4.015625 C 3.75 -3.878906 3.75 -3.769531 3.75 -3.6875 C 3.75 -2.90625 3.863281 -2.394531 4.09375 -2.15625 C 4.332031 -1.925781 4.84375 -1.8125 5.625 -1.8125 Z M 6.5 -1.828125 "/></g></g></g><g clip-path="url(#id2)"><g fill="#000000" fill-opacity="1"><g transform="translate(212.223653, 37.32564)"><g><path d="M 7.359375 -5.625 L 6.90625 -5.703125 L 6.359375 -5.71875 L 5.203125 -5.71875 L 4.71875 -5.703125 L 4.21875 -5.65625 C 4.070312 -5.644531 3.9375 -5.582031 3.8125 -5.46875 C 3.726562 -5.382812 3.675781 -5.253906 3.65625 -5.078125 C 3.65625 -4.890625 3.734375 -4.757812 3.890625 -4.6875 C 4.046875 -4.625 4.265625 -4.59375 4.546875 -4.59375 L 7.484375 -4.578125 C 8.640625 -4.578125 9.5 -4.460938 10.0625 -4.234375 C 10.632812 -4.015625 10.921875 -3.421875 10.921875 -2.453125 C 10.921875 -1.847656 10.835938 -1.375 10.671875 -1.03125 C 10.515625 -0.695312 10.207031 -0.441406 9.75 -0.265625 C 9.289062 -0.0976562 8.726562 0.015625 8.0625 0.078125 C 7.8125 0.078125 7.4375 0.0859375 6.9375 0.109375 C 6.4375 0.140625 6.117188 0.15625 5.984375 0.15625 L 4.875 0.15625 C 4.226562 0.15625 3.664062 0.125 3.1875 0.0625 C 2.71875 0 2.300781 -0.101562 1.9375 -0.25 C 1.257812 -0.507812 0.921875 -1.164062 0.921875 -2.21875 L 3.703125 -2.21875 C 3.703125 -1.882812 3.804688 -1.6875 4.015625 -1.625 C 4.234375 -1.5625 4.375 -1.523438 4.4375 -1.515625 C 4.507812 -1.503906 4.59375 -1.5 4.6875 -1.5 L 5.328125 -1.484375 L 6.59375 -1.46875 L 6.875 -1.46875 C 6.957031 -1.46875 7.039062 -1.46875 7.125 -1.46875 C 7.226562 -1.488281 7.300781 -1.5 7.34375 -1.5 C 7.46875 -1.5 7.5625 -1.503906 7.625 -1.515625 C 7.6875 -1.535156 7.804688 -1.582031 7.984375 -1.65625 C 8.160156 -1.726562 8.25 -1.910156 8.25 -2.203125 C 8.25 -2.410156 8.15625 -2.550781 7.96875 -2.625 C 7.78125 -2.695312 7.5625 -2.734375 7.3125 -2.734375 L 5.3125 -2.734375 L 3.046875 -2.796875 C 1.660156 -2.921875 0.96875 -3.644531 0.96875 -4.96875 C 0.96875 -5.800781 1.210938 -6.363281 1.703125 -6.65625 C 2.191406 -6.957031 2.921875 -7.15625 3.890625 -7.25 L 6.484375 -7.3125 C 6.734375 -7.3125 6.972656 -7.3125 7.203125 -7.3125 C 7.429688 -7.3125 7.632812 -7.300781 7.8125 -7.28125 C 8.125 -7.28125 8.53125 -7.234375 9.03125 -7.140625 C 9.539062 -7.046875 9.921875 -6.84375 10.171875 -6.53125 C 10.429688 -6.226562 10.5625 -5.789062 10.5625 -5.21875 L 7.765625 -5.21875 C 7.734375 -5.425781 7.597656 -5.5625 7.359375 -5.625 Z M 7.359375 -5.625 "/></g></g></g></g></svg>